<svg width="157" height="37" viewBox="0 0 157 37" fill="none" xmlns="http://www.w3.org/2000/svg">
<g clip-path="url(#clip0_2_5592)">
<path d="M28.9862 18.1485L28.1599 21.2318H12.0279L7.63721 4.8501H10.8315L14.3928 18.1485H28.9862Z" fill="#AD7E5C"/>
<path d="M27.6635 23.0818L26.8371 26.1651H8.46354L7.63721 23.0818H27.6635Z" fill="#518581"/>
<path d="M26.3412 28.0151L25.5148 31.0985H12.8547L12.0283 28.0151H26.3412Z" fill="#A6D8D1"/>
</g>
<path d="M151.258 33.7159C150.274 33.7159 149.398 33.4879 148.63 33.0319C147.874 32.5759 147.28 31.9579 146.848 31.1779C146.428 30.3979 146.218 29.5339 146.218 28.5859C146.218 27.6259 146.428 26.7619 146.848 25.9939C147.28 25.2139 147.862 24.6019 148.594 24.1579C149.338 23.7139 150.166 23.4919 151.078 23.4919C152.062 23.4919 152.914 23.7079 153.634 24.1399C154.354 24.5599 154.9 25.1359 155.272 25.8679C155.656 26.5999 155.848 27.4039 155.848 28.2799C155.848 28.6879 155.806 29.0179 155.722 29.2699H148.666C148.738 29.9899 149.014 30.5659 149.494 30.9979C149.974 31.4299 150.568 31.6459 151.276 31.6459C151.804 31.6459 152.254 31.5379 152.626 31.3219C153.01 31.0939 153.316 30.7819 153.544 30.3859L155.452 31.3219C155.152 32.0419 154.624 32.6239 153.868 33.0679C153.112 33.4999 152.242 33.7159 151.258 33.7159ZM153.328 27.4699C153.268 26.8699 153.034 26.3839 152.626 26.0119C152.218 25.6279 151.702 25.4359 151.078 25.4359C150.478 25.4359 149.968 25.6159 149.548 25.9759C149.128 26.3239 148.852 26.8219 148.72 27.4699H153.328Z" fill="#AD7E5C"/>
<path d="M140.601 23.7081H142.815V25.0761C143.055 24.5481 143.397 24.1701 143.841 23.9421C144.285 23.7141 144.825 23.6001 145.461 23.6001H146.037V25.6881H145.191C144.519 25.6881 143.979 25.8981 143.571 26.3181C143.163 26.7381 142.959 27.3141 142.959 28.0461V33.5001H140.601V23.7081Z" fill="#AD7E5C"/>
<path d="M134.143 33.716C133.003 33.716 132.103 33.35 131.443 32.618C130.783 31.886 130.453 30.914 130.453 29.702V23.708H132.811V29.504C132.811 30.116 132.991 30.614 133.351 30.998C133.723 31.37 134.203 31.556 134.791 31.556C135.379 31.556 135.853 31.364 136.213 30.98C136.585 30.596 136.771 30.086 136.771 29.45V23.708H139.129V33.5H136.897V32.33C136.633 32.786 136.261 33.134 135.781 33.374C135.313 33.602 134.767 33.716 134.143 33.716Z" fill="#AD7E5C"/>
<path d="M128.4 33.6081C127.296 33.6081 126.438 33.3081 125.826 32.7081C125.226 32.0961 124.926 31.2381 124.926 30.1341V25.8141H123.234V23.7081H123.414C123.894 23.7081 124.266 23.5821 124.53 23.3301C124.794 23.0781 124.926 22.7121 124.926 22.2321V21.4761H127.284V23.7081H129.534V25.8141H127.284V30.0081C127.284 31.0281 127.836 31.5381 128.94 31.5381C129.132 31.5381 129.342 31.5201 129.57 31.4841V33.5181C129.186 33.5781 128.796 33.6081 128.4 33.6081Z" fill="#AD7E5C"/>
<path d="M120.12 23.7079H122.478V33.4999H120.12V23.7079ZM119.94 21.0079C119.94 20.5759 120.06 20.2399 120.3 19.9999C120.54 19.7599 120.87 19.6399 121.29 19.6399C121.722 19.6399 122.058 19.7599 122.298 19.9999C122.538 20.2399 122.658 20.5759 122.658 21.0079C122.658 21.4279 122.538 21.7579 122.298 21.9979C122.07 22.2379 121.734 22.3579 121.29 22.3579C120.87 22.3579 120.54 22.2379 120.3 21.9979C120.06 21.7579 119.94 21.4279 119.94 21.0079Z" fill="#AD7E5C"/>
<path d="M110.171 23.7079H112.385V24.9139C112.637 24.4579 113.003 24.1099 113.483 23.8699C113.975 23.6179 114.533 23.4919 115.157 23.4919C115.865 23.4919 116.501 23.6479 117.065 23.9599C117.629 24.2719 118.067 24.7099 118.379 25.2739C118.691 25.8379 118.847 26.4799 118.847 27.1999V33.4999H116.489V27.7579C116.489 27.1219 116.303 26.6119 115.931 26.2279C115.571 25.8439 115.097 25.6519 114.509 25.6519C113.921 25.6519 113.441 25.8439 113.069 26.2279C112.709 26.6119 112.529 27.1219 112.529 27.7579V33.4999H110.171V23.7079Z" fill="#AD7E5C"/>
<path d="M104.158 23.7081H106.372V25.0761C106.612 24.5481 106.954 24.1701 107.398 23.9421C107.842 23.7141 108.382 23.6001 109.018 23.6001H109.594V25.6881H108.748C108.076 25.6881 107.536 25.8981 107.128 26.3181C106.72 26.7381 106.516 27.3141 106.516 28.0461V33.5001H104.158V23.7081Z" fill="#AD7E5C"/>
<path d="M97.7003 33.716C96.5603 33.716 95.6603 33.35 95.0003 32.618C94.3403 31.886 94.0103 30.914 94.0103 29.702V23.708H96.3683V29.504C96.3683 30.116 96.5483 30.614 96.9083 30.998C97.2803 31.37 97.7603 31.556 98.3483 31.556C98.9363 31.556 99.4103 31.364 99.7703 30.98C100.142 30.596 100.328 30.086 100.328 29.45V23.708H102.686V33.5H100.454V32.33C100.19 32.786 99.8183 33.134 99.3383 33.374C98.8703 33.602 98.3243 33.716 97.7003 33.716Z" fill="#AD7E5C"/>
<path d="M84.7554 20.0901H93.7014V22.2501H87.2034V25.9581H92.8914V28.1181H87.2034V33.5001H84.7554V20.0901Z" fill="#AD7E5C"/>
<path d="M78.2627 19.874H80.6207V33.5H78.2627V19.874Z" fill="#AFADB5"/>
<path d="M72.6054 33.7159C71.6214 33.7159 70.7454 33.4879 69.9774 33.0319C69.2214 32.5759 68.6274 31.9579 68.1954 31.1779C67.7754 30.3979 67.5654 29.5339 67.5654 28.5859C67.5654 27.6259 67.7754 26.7619 68.1954 25.9939C68.6274 25.2139 69.2094 24.6019 69.9414 24.1579C70.6854 23.7139 71.5134 23.4919 72.4254 23.4919C73.4094 23.4919 74.2614 23.7079 74.9814 24.1399C75.7014 24.5599 76.2474 25.1359 76.6194 25.8679C77.0034 26.5999 77.1954 27.4039 77.1954 28.2799C77.1954 28.6879 77.1534 29.0179 77.0694 29.2699H70.0134C70.0854 29.9899 70.3614 30.5659 70.8414 30.9979C71.3214 31.4299 71.9154 31.6459 72.6234 31.6459C73.1514 31.6459 73.6014 31.5379 73.9734 31.3219C74.3574 31.0939 74.6634 30.7819 74.8914 30.3859L76.7994 31.3219C76.4994 32.0419 75.9714 32.6239 75.2154 33.0679C74.4594 33.4999 73.5894 33.7159 72.6054 33.7159ZM74.6754 27.4699C74.6154 26.8699 74.3814 26.3839 73.9734 26.0119C73.5654 25.6279 73.0494 25.4359 72.4254 25.4359C71.8254 25.4359 71.3154 25.6159 70.8954 25.9759C70.4754 26.3239 70.1994 26.8219 70.0674 27.4699H74.6754Z" fill="#AFADB5"/>
<path d="M62.3042 33.7159C61.3202 33.7159 60.4442 33.4879 59.6762 33.0319C58.9202 32.5759 58.3262 31.9579 57.8942 31.1779C57.4742 30.3979 57.2642 29.5339 57.2642 28.5859C57.2642 27.6259 57.4742 26.7619 57.8942 25.9939C58.3262 25.2139 58.9082 24.6019 59.6402 24.1579C60.3842 23.7139 61.2122 23.4919 62.1242 23.4919C63.1082 23.4919 63.9602 23.7079 64.6802 24.1399C65.4002 24.5599 65.9462 25.1359 66.3182 25.8679C66.7022 26.5999 66.8942 27.4039 66.8942 28.2799C66.8942 28.6879 66.8522 29.0179 66.7682 29.2699H59.7122C59.7842 29.9899 60.0602 30.5659 60.5402 30.9979C61.0202 31.4299 61.6142 31.6459 62.3222 31.6459C62.8502 31.6459 63.3002 31.5379 63.6722 31.3219C64.0562 31.0939 64.3622 30.7819 64.5902 30.3859L66.4982 31.3219C66.1982 32.0419 65.6702 32.6239 64.9142 33.0679C64.1582 33.4999 63.2882 33.7159 62.3042 33.7159ZM64.3742 27.4699C64.3142 26.8699 64.0802 26.3839 63.6722 26.0119C63.2642 25.6279 62.7482 25.4359 62.1242 25.4359C61.5242 25.4359 61.0142 25.6159 60.5942 25.9759C60.1742 26.3239 59.8982 26.8219 59.7662 27.4699H64.3742Z" fill="#AFADB5"/>
<path d="M55.4961 33.6081C54.3921 33.6081 53.5341 33.3081 52.9221 32.7081C52.3221 32.0961 52.0221 31.2381 52.0221 30.1341V25.8141H50.3301V23.7081H50.5101C50.9901 23.7081 51.3621 23.5821 51.6261 23.3301C51.8901 23.0781 52.0221 22.7121 52.0221 22.2321V21.4761H54.3801V23.7081H56.6301V25.8141H54.3801V30.0081C54.3801 31.0281 54.9321 31.5381 56.0361 31.5381C56.2281 31.5381 56.4381 31.5201 56.6661 31.4841V33.5181C56.2821 33.5781 55.8921 33.6081 55.4961 33.6081Z" fill="#AFADB5"/>
<path d="M45.0841 33.716C44.0281 33.716 43.1101 33.518 42.3301 33.122C41.5621 32.726 40.9621 32.228 40.5301 31.628C40.0981 31.016 39.8221 30.38 39.7021 29.72L42.0061 29.108C42.1861 29.84 42.5461 30.41 43.0861 30.818C43.6261 31.226 44.3041 31.43 45.1201 31.43C45.7441 31.43 46.2481 31.274 46.6321 30.962C47.0281 30.65 47.2261 30.278 47.2261 29.846C47.2261 29.45 47.0821 29.108 46.7941 28.82C46.5181 28.52 46.1401 28.322 45.6601 28.226L43.6441 27.83C42.5761 27.626 41.7361 27.164 41.1241 26.444C40.5121 25.724 40.2061 24.848 40.2061 23.816C40.2061 23.096 40.4101 22.436 40.8181 21.836C41.2381 21.224 41.7901 20.744 42.4741 20.396C43.1701 20.048 43.9081 19.874 44.6881 19.874C45.6841 19.874 46.5301 20.042 47.2261 20.378C47.9221 20.714 48.4621 21.14 48.8461 21.656C49.2421 22.16 49.5061 22.694 49.6381 23.258L47.3521 23.978C47.1001 23.33 46.7581 22.868 46.3261 22.592C45.8941 22.304 45.3481 22.16 44.6881 22.16C44.3161 22.16 43.9801 22.238 43.6801 22.394C43.3921 22.55 43.1641 22.754 42.9961 23.006C42.8401 23.246 42.7621 23.492 42.7621 23.744C42.7621 24.14 42.8941 24.488 43.1581 24.788C43.4221 25.076 43.7881 25.262 44.2561 25.346L46.1641 25.76C47.3281 26.012 48.2281 26.492 48.8641 27.2C49.5001 27.896 49.8181 28.73 49.8181 29.702C49.8181 30.398 49.6261 31.052 49.2421 31.664C48.8581 32.276 48.3061 32.774 47.5861 33.158C46.8781 33.53 46.0441 33.716 45.0841 33.716Z" fill="#AFADB5"/>
<path d="M75.4966 17.716C74.3566 17.716 73.4566 17.35 72.7966 16.618C72.1366 15.886 71.8066 14.914 71.8066 13.702V7.70801H74.1646V13.504C74.1646 14.116 74.3446 14.614 74.7046 14.998C75.0766 15.37 75.5566 15.556 76.1446 15.556C76.7326 15.556 77.2066 15.364 77.5666 14.98C77.9386 14.596 78.1246 14.086 78.1246 13.45V7.70801H80.4826V17.5H78.2506V16.33C77.9866 16.786 77.6146 17.134 77.1346 17.374C76.6666 17.602 76.1206 17.716 75.4966 17.716Z" fill="#518581"/>
<path d="M62.0547 7.70794H64.2687V8.91394C64.5207 8.45794 64.8867 8.10994 65.3667 7.86994C65.8587 7.61794 66.4167 7.49194 67.0407 7.49194C67.7487 7.49194 68.3847 7.64794 68.9487 7.95994C69.5127 8.27194 69.9507 8.70994 70.2627 9.27394C70.5747 9.83794 70.7307 10.4799 70.7307 11.1999V17.4999H68.3727V11.7579C68.3727 11.1219 68.1867 10.6119 67.8147 10.2279C67.4547 9.84394 66.9807 9.65194 66.3927 9.65194C65.8047 9.65194 65.3247 9.84394 64.9527 10.2279C64.5927 10.6119 64.4127 11.1219 64.4127 11.7579V17.4999H62.0547V7.70794Z" fill="#518581"/>
<path d="M55.8202 17.7159C54.8722 17.7159 54.0022 17.4939 53.2102 17.0499C52.4182 16.6059 51.7882 15.9939 51.3202 15.2139C50.8642 14.4339 50.6362 13.5639 50.6362 12.6039C50.6362 11.6439 50.8642 10.7739 51.3202 9.99394C51.7762 9.21394 52.4002 8.60194 53.1922 8.15794C53.9842 7.71394 54.8602 7.49194 55.8202 7.49194C56.7682 7.49194 57.6322 7.71394 58.4122 8.15794C59.2042 8.60194 59.8282 9.21394 60.2842 9.99394C60.7522 10.7739 60.9862 11.6439 60.9862 12.6039C60.9862 13.5759 60.7522 14.4519 60.2842 15.2319C59.8282 16.0119 59.2042 16.6239 58.4122 17.0679C57.6202 17.4999 56.7562 17.7159 55.8202 17.7159ZM53.0842 12.6039C53.0842 13.4559 53.3362 14.1639 53.8402 14.7279C54.3562 15.2799 55.0162 15.5559 55.8202 15.5559C56.3362 15.5559 56.7982 15.4299 57.2062 15.1779C57.6142 14.9259 57.9322 14.5779 58.1602 14.1339C58.4002 13.6779 58.5202 13.1679 58.5202 12.6039C58.5202 12.0519 58.4002 11.5539 58.1602 11.1099C57.9322 10.6539 57.6142 10.2999 57.2062 10.0479C56.7982 9.78394 56.3362 9.65194 55.8202 9.65194C55.2922 9.65194 54.8182 9.78394 54.3982 10.0479C53.9902 10.2999 53.6662 10.6479 53.4262 11.0919C53.1982 11.5359 53.0842 12.0399 53.0842 12.6039Z" fill="#518581"/>
<path d="M45.0841 17.716C44.0281 17.716 43.1101 17.518 42.3301 17.122C41.5621 16.726 40.9621 16.228 40.5301 15.628C40.0981 15.016 39.8221 14.38 39.7021 13.72L42.0061 13.108C42.1861 13.84 42.5461 14.41 43.0861 14.818C43.6261 15.226 44.3041 15.43 45.1201 15.43C45.7441 15.43 46.2481 15.274 46.6321 14.962C47.0281 14.65 47.2261 14.278 47.2261 13.846C47.2261 13.45 47.0821 13.108 46.7941 12.82C46.5181 12.52 46.1401 12.322 45.6601 12.226L43.6441 11.83C42.5761 11.626 41.7361 11.164 41.1241 10.444C40.5121 9.72402 40.2061 8.84802 40.2061 7.81602C40.2061 7.09602 40.4101 6.43602 40.8181 5.83602C41.2381 5.22402 41.7901 4.74402 42.4741 4.39602C43.1701 4.04802 43.9081 3.87402 44.6881 3.87402C45.6841 3.87402 46.5301 4.04202 47.2261 4.37802C47.9221 4.71402 48.4621 5.14002 48.8461 5.65602C49.2421 6.16002 49.5061 6.69402 49.6381 7.25802L47.3521 7.97802C47.1001 7.33002 46.7581 6.86802 46.3261 6.59202C45.8941 6.30402 45.3481 6.16002 44.6881 6.16002C44.3161 6.16002 43.9801 6.23802 43.6801 6.39402C43.3921 6.55002 43.1641 6.75402 42.9961 7.00602C42.8401 7.24602 42.7621 7.49202 42.7621 7.74402C42.7621 8.14002 42.8941 8.48802 43.1581 8.78802C43.4221 9.07602 43.7881 9.26202 44.2561 9.34602L46.1641 9.76002C47.3281 10.012 48.2281 10.492 48.8641 11.2C49.5001 11.896 49.8181 12.73 49.8181 13.702C49.8181 14.398 49.6261 15.052 49.2421 15.664C48.8581 16.276 48.3061 16.774 47.5861 17.158C46.8781 17.53 46.0441 17.716 45.0841 17.716Z" fill="#518581"/>
<path d="M155.798 28.2803C155.798 27.412 155.607 26.6159 155.228 25.8916V25.8906C154.86 25.1674 154.32 24.5988 153.608 24.1836V24.1826C152.898 23.7561 152.054 23.5421 151.078 23.542C150.175 23.542 149.355 23.7611 148.619 24.2002C147.895 24.6395 147.32 25.2459 146.892 26.0186C146.476 26.7784 146.268 27.6337 146.268 28.5859C146.268 29.5259 146.476 30.3813 146.892 31.1533L147.06 31.4355C147.469 32.0763 148 32.5942 148.655 32.9893L148.945 33.1475C149.633 33.4928 150.404 33.666 151.258 33.666C152.234 33.666 153.095 33.4515 153.843 33.0244L154.112 32.8535C154.703 32.4493 155.125 31.9457 155.385 31.3447L153.562 30.4502C153.332 30.8344 153.03 31.1406 152.651 31.3652H152.65C152.269 31.5864 151.81 31.6963 151.275 31.6963C150.556 31.6962 149.95 31.4762 149.46 31.0352C148.97 30.5939 148.689 30.0059 148.616 29.2754L148.61 29.2197H155.683C155.757 28.9791 155.798 28.667 155.798 28.2803ZM151.078 25.3857C151.713 25.3858 152.241 25.5815 152.659 25.9746C153.077 26.3557 153.317 26.8539 153.378 27.4648L153.383 27.5195H148.658L148.671 27.46C148.788 26.8853 149.017 26.4235 149.361 26.0781L149.516 25.9375C149.945 25.5694 150.468 25.3857 151.078 25.3857ZM151.078 25.4863C150.489 25.4863 149.99 25.6621 149.58 26.0137V26.0146C149.184 26.3431 148.918 26.8103 148.783 27.4199H153.271C153.212 26.9293 153.033 26.52 152.733 26.1904L152.592 26.0488C152.194 25.6747 151.691 25.4864 151.078 25.4863ZM155.897 28.2803C155.897 28.691 155.856 29.0271 155.77 29.2861L155.758 29.3203H148.724C148.803 30.0035 149.07 30.5494 149.527 30.9609C149.997 31.3837 150.579 31.5956 151.275 31.5957C151.797 31.5957 152.238 31.489 152.601 31.2783C152.977 31.0549 153.276 30.7497 153.5 30.3613L153.523 30.3203L153.565 30.3408L155.474 31.2773L155.516 31.2979L155.498 31.3408C155.231 31.9807 154.788 32.513 154.169 32.9365L153.893 33.1113C153.128 33.5482 152.249 33.7656 151.258 33.7656C150.266 33.7656 149.381 33.5361 148.604 33.0752H148.604C147.936 32.6723 147.393 32.1435 146.976 31.4902L146.804 31.2021C146.38 30.4144 146.168 29.5416 146.168 28.5859C146.168 27.6184 146.379 26.7458 146.804 25.9697C147.24 25.1825 147.828 24.5639 148.567 24.1152H148.568C149.32 23.6664 150.158 23.4424 151.078 23.4424C152.069 23.4424 152.93 23.6595 153.659 24.0967L153.924 24.2637C154.522 24.6698 154.986 25.197 155.315 25.8447H155.316C155.704 26.5843 155.897 27.3967 155.897 28.2803Z" fill="#518581" fill-opacity="0.12"/>
<path d="M142.909 28.0459C142.909 27.3044 143.116 26.7147 143.535 26.2832C143.954 25.8521 144.508 25.6377 145.191 25.6377H145.987V23.6504H145.461C144.831 23.6504 144.299 23.7629 143.864 23.9863C143.432 24.2084 143.096 24.5772 142.86 25.0967L142.766 25.0762V23.7578H140.651V33.4502H142.909V28.0459ZM143.01 33.5498H140.552V23.6582H142.865V24.8633C143.102 24.4255 143.419 24.1025 143.818 23.8975C144.271 23.665 144.819 23.5498 145.461 23.5498H146.087V25.7383H145.191C144.531 25.7383 144.005 25.9439 143.607 26.3525C143.211 26.761 143.01 27.3235 143.01 28.0459V33.5498Z" fill="#518581" fill-opacity="0.12"/>
<path d="M136.722 29.4502V23.6582H139.18V33.5498H136.848V32.5039C136.623 32.8411 136.335 33.1142 135.981 33.3223L135.804 33.4189C135.328 33.6508 134.774 33.7656 134.144 33.7656C132.992 33.7656 132.077 33.3956 131.406 32.6514C130.736 31.9082 130.403 30.9234 130.403 29.7021V23.6582H132.861V29.5039C132.861 30.1049 133.037 30.5898 133.387 30.9629L133.527 31.0898C133.867 31.3667 134.287 31.5058 134.791 31.5059C135.367 31.5059 135.827 31.3188 136.177 30.9463L136.178 30.9453C136.539 30.5724 136.722 30.0757 136.722 29.4502ZM136.821 29.4502C136.821 30.0962 136.631 30.6187 136.249 31.0137C135.878 31.4089 135.391 31.6064 134.791 31.6064C134.192 31.6064 133.699 31.4156 133.316 31.0332L133.314 31.0322C132.944 30.6375 132.762 30.1263 132.762 29.5039V23.7578H130.503V29.7021C130.503 30.9047 130.831 31.8642 131.48 32.585C132.129 33.3046 133.015 33.666 134.144 33.666C134.761 33.666 135.299 33.553 135.759 33.3291C136.23 33.0934 136.595 32.7521 136.854 32.3047L136.947 32.1436V33.4502H139.079V23.7578H136.821V29.4502Z" fill="#518581" fill-opacity="0.12"/>
<path d="M124.876 21.4258H127.334V23.6582H129.584V25.8643H127.334V30.0078C127.334 30.509 127.469 30.8766 127.731 31.1191C127.995 31.3623 128.394 31.4882 128.939 31.4883C129.128 31.4883 129.337 31.4702 129.562 31.4346L129.62 31.4258V33.5605L129.577 33.5674C129.191 33.6278 128.798 33.6582 128.399 33.6582C127.287 33.6581 126.415 33.3554 125.791 32.7441L125.79 32.7432C125.178 32.1193 124.876 31.2469 124.876 30.1338V25.8643H123.184V23.6582H123.414C123.885 23.6582 124.243 23.5344 124.495 23.2939C124.746 23.0542 124.876 22.703 124.876 22.2324V21.4258ZM124.976 22.2324C124.976 22.7214 124.841 23.1021 124.564 23.3662C124.289 23.6296 123.903 23.7578 123.414 23.7578H123.284V25.7637H124.976V30.1338C124.976 31.2279 125.273 32.0718 125.86 32.6719C126.46 33.2602 127.305 33.5575 128.399 33.5576C128.778 33.5576 129.152 33.5289 129.52 33.4736V31.54C129.312 31.5705 129.118 31.5879 128.939 31.5879C128.381 31.5878 127.953 31.459 127.664 31.1924C127.375 30.9249 127.233 30.5266 127.233 30.0078V25.7637H129.483V23.7578H127.233V21.5264H124.976V22.2324Z" fill="#518581" fill-opacity="0.12"/>
<path d="M122.528 23.6582V33.5498H120.07V23.6582H122.528ZM120.171 33.4502H122.429V23.7578H120.171V33.4502ZM122.608 21.0078C122.608 20.5854 122.492 20.2634 122.264 20.0352C122.035 19.807 121.713 19.6905 121.291 19.6904C120.881 19.6904 120.564 19.8067 120.336 20.0352C120.108 20.2634 119.99 20.5854 119.99 21.0078C119.99 21.4179 120.107 21.7344 120.336 21.9629C120.564 22.1913 120.881 22.3076 121.291 22.3076C121.726 22.3076 122.047 22.1908 122.263 21.9639L122.264 21.9629C122.492 21.7344 122.608 21.4179 122.608 21.0078ZM122.709 21.0078C122.709 21.4371 122.585 21.7798 122.334 22.0312L122.335 22.0322C122.095 22.2851 121.744 22.4081 121.291 22.4082C120.861 22.4082 120.517 22.2846 120.266 22.0332C120.014 21.7817 119.891 21.4377 119.891 21.0078C119.891 20.5664 120.014 20.2166 120.266 19.9648C120.517 19.7134 120.861 19.5898 121.291 19.5898C121.732 19.5899 122.082 19.7132 122.334 19.9648C122.586 20.2166 122.709 20.5665 122.709 21.0078Z" fill="#518581" fill-opacity="0.12"/>
<path d="M118.797 27.2002C118.797 26.4877 118.642 25.8536 118.335 25.2979C118.028 24.7424 117.596 24.3113 117.041 24.0039C116.485 23.6964 115.857 23.542 115.156 23.542C114.54 23.5421 113.99 23.6663 113.506 23.9141L113.505 23.915C113.034 24.1507 112.676 24.4917 112.429 24.9385L112.335 24.9141V23.7578H110.221V33.4502H112.479V27.7578C112.479 27.112 112.662 26.5884 113.032 26.1934H113.033C113.416 25.7987 113.909 25.6016 114.509 25.6016C115.109 25.6016 115.596 25.7983 115.967 26.1934L116.102 26.3477C116.394 26.7212 116.539 27.1925 116.539 27.7578V33.4502H118.797V27.2002ZM118.896 33.5498H116.438V27.7578C116.438 27.1323 116.256 26.6356 115.895 26.2627V26.2617C115.545 25.8891 115.085 25.7022 114.509 25.7021C113.933 25.7021 113.466 25.8894 113.104 26.2627C112.755 26.6355 112.579 27.1322 112.579 27.7578V33.5498H110.121V23.6582H112.435V24.7334C112.686 24.3444 113.028 24.0414 113.46 23.8252L113.65 23.7354C114.102 23.5395 114.604 23.4424 115.156 23.4424C115.872 23.4424 116.517 23.5996 117.089 23.916C117.661 24.2326 118.106 24.6778 118.423 25.25C118.739 25.8222 118.896 26.4729 118.896 27.2002V33.5498Z" fill="#518581" fill-opacity="0.12"/>
<path d="M106.467 28.0459C106.467 27.3044 106.674 26.7147 107.093 26.2832C107.512 25.8522 108.065 25.6378 108.748 25.6377H109.544V23.6504H109.019C108.388 23.6504 107.856 23.7628 107.421 23.9863C106.989 24.2084 106.654 24.5773 106.418 25.0967L106.322 25.0762V23.7578H104.208V33.4502H106.467V28.0459ZM106.566 33.5498H104.108V23.6582H106.422V24.8633C106.658 24.4255 106.976 24.1025 107.375 23.8975C107.828 23.665 108.377 23.5498 109.019 23.5498H109.645V25.7383H108.748C108.088 25.7383 107.561 25.9438 107.164 26.3525C106.767 26.761 106.566 27.3235 106.566 28.0459V33.5498Z" fill="#518581" fill-opacity="0.12"/>
<path d="M100.278 29.4502V23.6582H102.736V33.5498H100.404V32.5039C100.18 32.8409 99.8919 33.1143 99.5391 33.3223L99.3604 33.4189C98.8843 33.6509 98.3303 33.7656 97.7002 33.7656C96.5486 33.7656 95.6339 33.3955 94.9629 32.6514C94.293 31.9083 93.96 30.9233 93.96 29.7021V23.6582H96.418V29.5039C96.418 30.1054 96.5954 30.5906 96.9453 30.9639H96.9443C97.3057 31.3247 97.7727 31.5059 98.3486 31.5059C98.9245 31.5058 99.385 31.3189 99.7344 30.9463V30.9453C100.096 30.5724 100.278 30.0757 100.278 29.4502ZM100.378 29.4502C100.378 30.0157 100.233 30.4867 99.9404 30.8604L99.8066 31.0146C99.4361 31.4097 98.9484 31.6064 98.3486 31.6064C97.7491 31.6064 97.2556 31.4157 96.873 31.0332L96.8721 31.0322C96.502 30.6375 96.3184 30.1264 96.3184 29.5039V23.7578H94.0605V29.7021C94.0606 30.9047 94.3872 31.8642 95.0371 32.585C95.6861 33.3047 96.572 33.666 97.7002 33.666C98.3181 33.666 98.8565 33.5532 99.3164 33.3291L99.4883 33.2363C99.8774 33.007 100.185 32.6961 100.411 32.3047L100.504 32.1436V33.4502H102.637V23.7578H100.378V29.4502Z" fill="#518581" fill-opacity="0.12"/>
<path d="M93.751 20.04V22.2998H87.2529V25.9082H92.9414V28.168H87.2529V33.5498H84.7051V20.04H93.751ZM84.8057 33.4502H87.1533V28.0684H92.8408V26.0078H87.1533V22.2002H93.6514V20.1396H84.8057V33.4502Z" fill="#518581" fill-opacity="0.12"/>
<path d="M80.6709 19.8242V33.5498H78.2129V19.8242H80.6709ZM78.3125 33.4502H80.5713V19.9238H78.3125V33.4502Z" fill="#518581" fill-opacity="0.12"/>
<path d="M77.1455 28.2803C77.1455 27.412 76.9551 26.6159 76.5752 25.8916V25.8906C76.2076 25.1673 75.6679 24.5988 74.9561 24.1836V24.1826C74.2452 23.7561 73.4021 23.542 72.4258 23.542C71.5224 23.542 70.7026 23.7611 69.9668 24.2002C69.2426 24.6395 68.6672 25.2459 68.2393 26.0186L68.2383 26.0176C67.8227 26.7775 67.6152 27.6336 67.6152 28.5859C67.6152 29.5259 67.8238 30.3813 68.2393 31.1533L68.4072 31.4355C68.8165 32.0763 69.3481 32.5942 70.0029 32.9893C70.7624 33.4402 71.6295 33.666 72.6055 33.666C73.5819 33.666 74.443 33.4515 75.1904 33.0244L75.46 32.8535C76.0504 32.4493 76.4722 31.9457 76.7324 31.3447L74.9092 30.4502C74.7093 30.7847 74.4544 31.0598 74.1416 31.2734L73.999 31.3652C73.6178 31.5866 73.1579 31.6963 72.623 31.6963C71.9042 31.6962 71.2976 31.4762 70.8076 31.0352C70.3175 30.5939 70.037 30.0059 69.9639 29.2754L69.958 29.2197H77.0312C77.1057 28.9791 77.1455 28.6669 77.1455 28.2803ZM72.4258 25.3857C73.0603 25.3858 73.5887 25.5815 74.0068 25.9746C74.4248 26.3557 74.6645 26.8539 74.7256 27.4648L74.7305 27.5195H70.0059L70.0186 27.46C70.1356 26.8853 70.365 26.4235 70.709 26.0781L70.8633 25.9375C71.293 25.5693 71.8152 25.3857 72.4258 25.3857ZM72.4258 25.4863C71.8366 25.4863 71.3379 25.6621 70.9277 26.0137V26.0146C70.5313 26.3431 70.2656 26.8103 70.1309 27.4199H74.6182C74.5595 26.9292 74.3811 26.5201 74.0811 26.1904L73.9395 26.0488C73.5419 25.6746 73.0385 25.4864 72.4258 25.4863ZM77.2451 28.2803C77.2451 28.691 77.2035 29.0271 77.1172 29.2861L77.1055 29.3203H70.0713C70.1506 30.0035 70.4177 30.5494 70.875 30.9609C71.3448 31.3837 71.9263 31.5956 72.623 31.5957C73.1442 31.5957 73.5854 31.489 73.9482 31.2783C74.3243 31.0549 74.624 30.7497 74.8477 30.3613L74.8711 30.3203L74.9131 30.3408L76.8213 31.2773L76.8633 31.2979L76.8457 31.3408C76.5411 32.072 76.0052 32.6626 75.2412 33.1113H75.2402C74.4757 33.5482 73.597 33.7656 72.6055 33.7656C71.6135 33.7656 70.7286 33.5361 69.9521 33.0752H69.9512C69.2832 32.6723 68.7407 32.1435 68.3232 31.4902L68.1514 31.2021C67.7272 30.4144 67.5156 29.5416 67.5156 28.5859C67.5156 27.6184 67.727 26.7458 68.1514 25.9697C68.5873 25.1826 69.1754 24.5639 69.915 24.1152H69.916C70.6682 23.6664 71.5053 23.4424 72.4258 23.4424C73.4169 23.4424 74.278 23.6595 75.0068 24.0967L75.2715 24.2637C75.8699 24.6698 76.3338 25.197 76.6631 25.8447H76.6641C77.052 26.5843 77.2451 27.3967 77.2451 28.2803Z" fill="#518581" fill-opacity="0.12"/>
<path d="M66.8438 28.2803C66.8438 27.4119 66.6534 26.616 66.2734 25.8916V25.8906C65.9059 25.1673 65.3661 24.5988 64.6543 24.1836V24.1826C63.9433 23.7561 63.1005 23.542 62.124 23.542C61.2206 23.542 60.4018 23.7621 59.666 24.2012C58.9418 24.6405 58.3654 25.2459 57.9375 26.0186C57.5221 26.7783 57.3135 27.6338 57.3135 28.5859C57.3135 29.5259 57.522 30.3814 57.9375 31.1533C58.3653 31.9257 58.9537 32.5378 59.7021 32.9893C60.4614 33.4399 61.3281 33.666 62.3037 33.666C63.28 33.666 64.1412 33.4515 64.8887 33.0244L65.1582 32.8535C65.7485 32.4494 66.1714 31.9465 66.4316 31.3457L64.6084 30.4502C64.4086 30.7847 64.1535 31.0598 63.8408 31.2734L63.6973 31.3652C63.3162 31.5865 62.857 31.6962 62.3223 31.6963C61.6033 31.6963 60.9969 31.4761 60.5068 31.0352C60.0165 30.5939 59.7352 30.006 59.6621 29.2754L59.6562 29.2197H66.7295C66.804 28.9791 66.8437 28.6669 66.8438 28.2803ZM62.124 25.3857C62.7586 25.3858 63.2869 25.5816 63.7051 25.9746C64.123 26.3557 64.3627 26.8539 64.4238 27.4648L64.4297 27.5195H59.7051L59.7168 27.46C59.8506 26.8033 60.132 26.2942 60.5625 25.9375C60.9922 25.5696 61.5136 25.3857 62.124 25.3857ZM62.124 25.4863C61.5351 25.4863 61.037 25.6624 60.627 26.0137L60.626 26.0146C60.2295 26.3432 59.9639 26.8103 59.8291 27.4199H64.3164C64.249 26.8566 64.0241 26.4003 63.6387 26.0488H63.6377C63.2401 25.6746 62.7368 25.4863 62.124 25.4863ZM66.9443 28.2803C66.9443 28.691 66.9018 29.0271 66.8154 29.2861L66.8037 29.3203H59.7695C59.8488 30.0035 60.116 30.5494 60.5732 30.9609C61.0431 31.3839 61.6253 31.5957 62.3223 31.5957C62.8433 31.5957 63.2838 31.4889 63.6465 31.2783C64.0227 31.0548 64.3231 30.7499 64.5469 30.3613L64.5703 30.3203L64.6123 30.3408L66.5195 31.2773L66.5625 31.2979L66.5439 31.3408C66.2393 32.072 65.7036 32.6626 64.9395 33.1113H64.9385C64.174 33.5481 63.2952 33.7656 62.3037 33.7656C61.4357 33.7656 60.6494 33.5902 59.9463 33.2373L59.6504 33.0752C58.8868 32.6146 58.2868 31.9897 57.8506 31.2021H57.8496C57.4254 30.4144 57.2139 29.5416 57.2139 28.5859C57.2139 27.6184 57.4252 26.7458 57.8496 25.9697H57.8506C58.2866 25.1825 58.8746 24.5639 59.6143 24.1152L59.9004 23.957C60.577 23.6135 61.3186 23.4424 62.124 23.4424C63.1155 23.4424 63.9771 23.6593 64.7061 24.0967H64.7051C65.4329 24.5213 65.9849 25.1045 66.3613 25.8447C66.7493 26.5843 66.9443 27.3967 66.9443 28.2803Z" fill="#518581" fill-opacity="0.12"/>
<path d="M51.9727 21.4258H54.4307V23.6582H56.6807V25.8643H54.4307V30.0078C54.4307 30.509 54.5656 30.8766 54.8281 31.1191C55.0913 31.3622 55.4911 31.4883 56.0361 31.4883C56.225 31.4883 56.4324 31.4702 56.6582 31.4346L56.7158 31.4258V33.5605L56.6738 33.5674C56.2873 33.6278 55.8946 33.6582 55.4961 33.6582C54.3833 33.6582 53.5115 33.3554 52.8877 32.7441L52.8867 32.7432C52.2751 32.1193 51.9727 31.2469 51.9727 30.1338V25.8643H50.2803V23.6582H50.5107C50.9818 23.6581 51.3398 23.5344 51.5918 23.2939C51.843 23.0542 51.9726 22.703 51.9727 22.2324V21.4258ZM52.0723 22.2324C52.0722 22.7213 51.9377 23.1021 51.6611 23.3662C51.3853 23.6295 50.9992 23.7577 50.5107 23.7578H50.3799V25.7637H52.0723V30.1338C52.0723 31.228 52.3693 32.0718 52.957 32.6719C53.5572 33.2602 54.4014 33.5576 55.4961 33.5576C55.8751 33.5576 56.2484 33.5289 56.6162 33.4736V31.54C56.4081 31.5705 56.2148 31.5879 56.0361 31.5879C55.4776 31.5879 55.0495 31.459 54.7607 31.1924C54.4712 30.9249 54.3301 30.5266 54.3301 30.0078V25.7637H56.5801V23.7578H54.3301V21.5264H52.0723V22.2324Z" fill="#518581" fill-opacity="0.12"/>
<path d="M42.7119 23.7441C42.7119 23.4812 42.7936 23.2255 42.9541 22.9785L43.0957 22.793C43.2483 22.6173 43.4354 22.4692 43.6562 22.3496H43.6572C43.965 22.1896 44.3094 22.1104 44.6885 22.1104C45.3546 22.1104 45.9098 22.2559 46.3516 22.5498H46.3525C46.7861 22.8268 47.127 23.2846 47.3799 23.916L49.5762 23.2236C49.4426 22.6845 49.1877 22.1716 48.8066 21.6865L48.8057 21.6855C48.4274 21.1773 47.8942 20.756 47.2041 20.4229C46.5167 20.091 45.6787 19.9239 44.6885 19.9238C43.9165 19.9238 43.1859 20.0961 42.4971 20.4404C41.905 20.7417 41.4132 21.1429 41.0215 21.6436L40.8594 21.8643C40.457 22.456 40.2559 23.1065 40.2559 23.8164C40.2559 24.8374 40.5588 25.7012 41.1621 26.4111C41.7656 27.1212 42.5947 27.5791 43.6533 27.7812L45.6699 28.1768C46.1571 28.2742 46.5448 28.476 46.8291 28.7842C47.1261 29.0812 47.2763 29.4362 47.2764 29.8457C47.2764 30.2394 47.1171 30.5838 46.8057 30.8779L46.6631 31.001C46.2681 31.3217 45.7523 31.4804 45.1201 31.4805C44.2955 31.4805 43.606 31.2732 43.0557 30.8574C42.5176 30.4508 42.1569 29.8866 41.9707 29.168L39.7598 29.7559C39.8825 30.3917 40.1521 31.006 40.5703 31.5986C40.9969 32.1911 41.5906 32.6842 42.3525 33.0771C43.1242 33.4689 44.0342 33.666 45.084 33.666C46.0375 33.666 46.863 33.4808 47.5625 33.1133C48.2755 32.7329 48.8205 32.2411 49.1992 31.6377C49.5784 31.0334 49.7676 30.3883 49.7676 29.7021C49.7676 28.7422 49.4544 27.9199 48.8271 27.2334C48.1998 26.535 47.3097 26.0589 46.1533 25.8086L44.2471 25.3945C43.7709 25.309 43.3939 25.1198 43.1211 24.8223L43.1201 24.8213C42.8482 24.5123 42.7119 24.1524 42.7119 23.7441ZM42.8115 23.7441C42.8116 24.1273 42.939 24.4633 43.1943 24.7539C43.4494 25.0322 43.8051 25.2144 44.2646 25.2969H44.2666L46.1748 25.7109C47.346 25.9645 48.2558 26.4488 48.9004 27.166H48.9014C49.546 27.8715 49.8682 28.7181 49.8682 29.7021C49.8681 30.4079 49.6729 31.0708 49.2842 31.6904C48.9436 32.2333 48.4733 32.6872 47.874 33.0518L47.6094 33.2021C46.8929 33.5786 46.0505 33.7656 45.084 33.7656C44.0219 33.7656 43.0959 33.5671 42.3076 33.167L42.3066 33.166C41.6297 32.8169 41.0807 32.3885 40.6611 31.8799L40.4893 31.6572C40.0536 31.04 39.7738 30.3965 39.6523 29.7285L39.6445 29.6836L39.6895 29.6719L41.9932 29.0596L42.042 29.0469L42.0547 29.0957C42.2323 29.8179 42.5864 30.378 43.1162 30.7783C43.6458 31.1784 44.3128 31.3799 45.1201 31.3799C45.7356 31.3799 46.2276 31.2259 46.6006 30.9229L46.7363 30.8057C47.0312 30.5276 47.1758 30.208 47.1758 29.8457C47.1757 29.4636 47.0376 29.1343 46.7588 28.8555L46.6523 28.749C46.3964 28.516 46.063 28.358 45.6504 28.2754L43.6348 27.8789C42.5574 27.6731 41.7064 27.2065 41.0859 26.4766C40.4656 25.7468 40.1563 24.8589 40.1562 23.8164C40.1562 23.0863 40.3628 22.4158 40.7764 21.8076C41.2012 21.1885 41.7601 20.7032 42.4512 20.3516L42.7168 20.2275C43.3413 19.9583 43.9991 19.8242 44.6885 19.8242C45.6897 19.8243 46.5437 19.993 47.248 20.333C47.9491 20.6715 48.4952 21.102 48.8848 21.625C49.2848 22.1341 49.5527 22.6752 49.6865 23.2471L49.6973 23.292L49.6533 23.3057L47.3672 24.0254L47.3223 24.04L47.3057 23.9961C47.0562 23.3545 46.7192 22.9024 46.2988 22.6338H46.2979C45.8762 22.3527 45.341 22.21 44.6885 22.21C44.3237 22.21 43.9953 22.2865 43.7031 22.4385L43.7021 22.4375C43.4212 22.5899 43.201 22.7898 43.0381 23.0342L43.0371 23.0332C42.8858 23.2661 42.8115 23.5032 42.8115 23.7441Z" fill="#518581" fill-opacity="0.12"/>
<path d="M78.0742 13.4502V7.6582H80.5322V17.5498H78.2002V16.5039C77.9393 16.8958 77.5919 17.2015 77.1572 17.4189H77.1562C76.6802 17.6509 76.1262 17.7656 75.4961 17.7656C74.3445 17.7656 73.4297 17.3955 72.7588 16.6514C72.0889 15.9083 71.7569 14.9233 71.7568 13.7021V7.6582H74.2148V13.5039C74.2148 14.105 74.3908 14.5898 74.7402 14.9629L74.8799 15.0898C75.2193 15.3669 75.64 15.5059 76.1445 15.5059C76.7204 15.5058 77.1809 15.3189 77.5303 14.9463V14.9453C77.8915 14.5724 78.0742 14.0757 78.0742 13.4502ZM78.1748 13.4502C78.1748 14.0157 78.029 14.4867 77.7363 14.8604L77.6025 15.0146C77.232 15.4097 76.7443 15.6064 76.1445 15.6064C75.545 15.6064 75.0515 15.4157 74.6689 15.0332L74.668 15.0322C74.2979 14.6375 74.1143 14.1264 74.1143 13.5039V7.75781H71.8564V13.7021C71.8565 14.9047 72.1841 15.8642 72.834 16.585C73.4829 17.3044 74.3682 17.6659 75.4961 17.666C76.1139 17.666 76.6524 17.5531 77.1123 17.3291L77.2842 17.2363C77.6733 17.007 77.9804 16.6961 78.207 16.3047L78.3008 16.1436V17.4502H80.4326V7.75781H78.1748V13.4502Z" fill="#518581"/>
<path d="M70.6807 11.2002C70.6807 10.4877 70.5262 9.85361 70.2188 9.29785C69.9113 8.7422 69.4795 8.31131 68.9238 8.00391C68.368 7.6965 67.7403 7.54199 67.04 7.54199C66.4233 7.54205 65.8735 7.66634 65.3896 7.91406L65.3887 7.91504C64.9176 8.15066 64.5594 8.49169 64.3125 8.93848L64.2188 8.91406V7.75781H62.1045V17.4502H64.3623V11.7578C64.3623 11.112 64.5456 10.5884 64.916 10.1934H64.917C65.2994 9.7987 65.7926 9.60156 66.3926 9.60156C66.9924 9.60158 67.48 9.79835 67.8506 10.1934L67.9844 10.3477C68.277 10.7213 68.4228 11.1923 68.4229 11.7578V17.4502H70.6807V11.2002ZM70.7803 17.5498H68.3223V11.7578C68.3222 11.1323 68.1396 10.6356 67.7783 10.2627V10.2617C67.429 9.88912 66.9685 9.70217 66.3926 9.70215C65.8166 9.70215 65.3499 9.88944 64.9883 10.2627C64.6391 10.6355 64.4629 11.1321 64.4629 11.7578V17.5498H62.0049V7.6582H64.3184V8.7334C64.5695 8.34444 64.9115 8.04139 65.3438 7.8252L65.5342 7.73535C65.9859 7.53947 66.4882 7.44244 67.04 7.44238C67.7556 7.44238 68.4006 7.59957 68.9727 7.91602C69.5449 8.23257 69.9901 8.67778 70.3066 9.25C70.6231 9.82217 70.7803 10.4729 70.7803 11.2002V17.5498Z" fill="#518581"/>
<path d="M60.9365 12.6035C60.9365 11.7712 60.7588 11.0082 60.4043 10.3135L60.2412 10.0195C59.8461 9.34367 59.3238 8.79509 58.6738 8.37402L58.3877 8.20117C57.6157 7.76172 56.7601 7.54199 55.8203 7.54199C54.8685 7.54199 54.0008 7.76169 53.2168 8.20117C52.4325 8.64084 51.8148 9.24725 51.3633 10.0195C50.9122 10.7912 50.6866 11.6521 50.6865 12.6035C50.6865 13.5551 50.9122 14.4167 51.3633 15.1885L51.5449 15.4697C51.9855 16.1093 52.548 16.6221 53.2344 17.0068C54.0186 17.4465 54.8805 17.666 55.8203 17.666C56.748 17.666 57.6035 17.452 58.3877 17.0244L58.6738 16.8516C59.3236 16.4306 59.8461 15.8827 60.2412 15.207V15.2061C60.7042 14.4344 60.9365 13.5671 60.9365 12.6035ZM58.4707 12.6035C58.4706 12.0592 58.3518 11.5697 58.1162 11.1338L58.1152 11.1328C57.8911 10.6846 57.5793 10.3376 57.1797 10.0908L57.1787 10.0898C56.7794 9.83157 56.3271 9.70215 55.8203 9.70215C55.3012 9.70215 54.8363 9.83124 54.4248 10.0898V10.0908C54.0246 10.338 53.7068 10.6795 53.4707 11.1162C53.2472 11.5519 53.1348 12.0471 53.1348 12.6035C53.1348 13.4449 53.3832 14.1407 53.8779 14.6943H53.877C54.3828 15.2353 55.0293 15.5059 55.8203 15.5059C56.3276 15.5059 56.7803 15.3823 57.1797 15.1357C57.5796 14.8887 57.8922 14.5466 58.1162 14.1104C58.352 13.6623 58.4707 13.16 58.4707 12.6035ZM58.5703 12.6035C58.5703 13.1746 58.448 13.6926 58.2041 14.1562C57.9721 14.608 57.6485 14.9637 57.2324 15.2207C56.816 15.4779 56.3448 15.6064 55.8203 15.6064C55.0035 15.6064 54.3298 15.3245 53.8037 14.7617H53.8027C53.2895 14.1874 53.0342 13.4661 53.0342 12.6035C53.0342 12.0329 53.1499 11.5211 53.3818 11.0693V11.0684C53.6257 10.6171 53.9563 10.2627 54.3721 10.0059C54.8005 9.7366 55.2836 9.60156 55.8203 9.60156C56.3453 9.60157 56.8168 9.73635 57.2334 10.0059H57.2324C57.6483 10.2627 57.9723 10.623 58.2041 11.0859C58.4483 11.5378 58.5702 12.0442 58.5703 12.6035ZM61.0361 12.6035C61.0361 13.5839 60.8001 14.4695 60.3271 15.2578L60.3262 15.2568C59.8657 16.0444 59.2362 16.663 58.4365 17.1113V17.1123C57.6369 17.5485 56.7643 17.7656 55.8203 17.7656C54.8641 17.7656 53.9854 17.5421 53.1855 17.0938C52.486 16.7015 51.9111 16.1793 51.4619 15.5273L51.2773 15.2393C50.8166 14.4511 50.5859 13.5718 50.5859 12.6035C50.586 11.6354 50.8167 10.7568 51.2773 9.96875C51.7379 9.18108 52.3683 8.56257 53.168 8.11426C53.9678 7.66588 54.8523 7.44238 55.8203 7.44238C56.7765 7.44239 57.6495 7.66573 58.4375 8.11426H58.4365C59.2362 8.56256 59.8666 9.1811 60.3271 9.96875L60.4932 10.2686C60.855 10.9779 61.0361 11.7563 61.0361 12.6035Z" fill="#518581"/>
<path d="M42.7119 7.74414C42.7119 7.4812 42.7936 7.22549 42.9541 6.97852L43.0957 6.79297C43.2483 6.61728 43.4354 6.46924 43.6562 6.34961H43.6572C43.965 6.18963 44.3094 6.11035 44.6885 6.11035C45.3546 6.11042 45.9098 6.25588 46.3516 6.5498H46.3525C46.7861 6.8268 47.127 7.28457 47.3799 7.91602L49.5762 7.22363C49.4426 6.68445 49.1877 6.17155 48.8066 5.68652L48.8057 5.68555C48.4274 5.17733 47.8942 4.75598 47.2041 4.42285C46.5167 4.09104 45.6787 3.92388 44.6885 3.92383C43.9165 3.92383 43.1859 4.09614 42.4971 4.44043C41.905 4.74168 41.4132 5.14292 41.0215 5.64355L40.8594 5.86426C40.457 6.45601 40.2559 7.10655 40.2559 7.81641C40.2559 8.83741 40.5588 9.70118 41.1621 10.4111C41.7656 11.1212 42.5947 11.5791 43.6533 11.7812L45.6699 12.1768C46.1571 12.2742 46.5448 12.476 46.8291 12.7842C47.1261 13.0812 47.2763 13.4362 47.2764 13.8457C47.2764 14.2394 47.1171 14.5838 46.8057 14.8779L46.6631 15.001C46.2681 15.3217 45.7523 15.4804 45.1201 15.4805C44.2955 15.4805 43.606 15.2732 43.0557 14.8574C42.5176 14.4508 42.1569 13.8866 41.9707 13.168L39.7598 13.7559C39.8825 14.3917 40.1521 15.006 40.5703 15.5986C40.9969 16.1911 41.5906 16.6842 42.3525 17.0771C43.1242 17.4689 44.0342 17.666 45.084 17.666C46.0375 17.666 46.863 17.4808 47.5625 17.1133C48.2755 16.7329 48.8205 16.2411 49.1992 15.6377C49.5784 15.0334 49.7676 14.3883 49.7676 13.7021C49.7676 12.7422 49.4544 11.9199 48.8271 11.2334C48.1998 10.535 47.3097 10.0589 46.1533 9.80859L44.2471 9.39453C43.7709 9.30903 43.3939 9.11979 43.1211 8.82227L43.1201 8.82129C42.8482 8.51229 42.7119 8.15235 42.7119 7.74414ZM42.8115 7.74414C42.8116 8.12728 42.939 8.46325 43.1943 8.75391C43.4494 9.03217 43.8051 9.21437 44.2646 9.29688H44.2666L46.1748 9.71094C47.346 9.96452 48.2558 10.4488 48.9004 11.166H48.9014C49.546 11.8715 49.8682 12.7181 49.8682 13.7021C49.8681 14.4079 49.6729 15.0708 49.2842 15.6904C48.9436 16.2333 48.4733 16.6872 47.874 17.0518L47.6094 17.2021C46.8929 17.5786 46.0505 17.7656 45.084 17.7656C44.0219 17.7656 43.0959 17.5671 42.3076 17.167L42.3066 17.166C41.6297 16.8169 41.0807 16.3885 40.6611 15.8799L40.4893 15.6572C40.0536 15.04 39.7738 14.3965 39.6523 13.7285L39.6445 13.6836L39.6895 13.6719L41.9932 13.0596L42.042 13.0469L42.0547 13.0957C42.2323 13.8179 42.5864 14.378 43.1162 14.7783C43.6458 15.1784 44.3128 15.3799 45.1201 15.3799C45.7356 15.3799 46.2276 15.2259 46.6006 14.9229L46.7363 14.8057C47.0312 14.5276 47.1758 14.208 47.1758 13.8457C47.1757 13.4636 47.0376 13.1343 46.7588 12.8555L46.6523 12.749C46.3964 12.516 46.063 12.358 45.6504 12.2754L43.6348 11.8789C42.5574 11.6731 41.7064 11.2065 41.0859 10.4766C40.4656 9.74676 40.1563 8.85892 40.1562 7.81641C40.1562 7.0863 40.3628 6.41584 40.7764 5.80762C41.2012 5.18854 41.7601 4.70321 42.4512 4.35156L42.7168 4.22754C43.3413 3.95833 43.9991 3.82422 44.6885 3.82422C45.6897 3.82427 46.5437 3.99299 47.248 4.33301C47.9491 4.67149 48.4952 5.10204 48.8848 5.625C49.2848 6.13412 49.5527 6.67524 49.6865 7.24707L49.6973 7.29199L49.6533 7.30566L47.3672 8.02539L47.3223 8.04004L47.3057 7.99609C47.0562 7.35452 46.7192 6.90235 46.2988 6.63379H46.2979C45.8762 6.35273 45.341 6.21003 44.6885 6.20996C44.3237 6.20996 43.9953 6.28654 43.7031 6.43848L43.7021 6.4375C43.4212 6.58987 43.201 6.78982 43.0381 7.03418L43.0371 7.0332C42.8858 7.26612 42.8115 7.5032 42.8115 7.74414Z" fill="#518581"/>
<defs>
<clipPath id="clip0_2_5592">
<rect width="37" height="37" fill="white"/>
</clipPath>
</defs>
</svg>
